<svg width="19" height="18" viewBox="0 0 19 18" fill="none" xmlns="http://www.w3.org/2000/svg">
    <path d="M2 16V2V6.475V6V16ZM5 10H8.525C8.80833 10 9.04583 9.90417 9.2375 9.7125C9.42917 9.52083 9.525 9.28333 9.525 9C9.525 8.71667 9.42917 8.47917 9.2375 8.2875C9.04583 8.09583 8.80833 8 8.525 8H5C4.71667 8 4.47917 8.09583 4.2875 8.2875C4.09583 8.47917 4 8.71667 4 9C4 9.28333 4.09583 9.52083 4.2875 9.7125C4.47917 9.90417 4.71667 10 5 10ZM5 14H8.525C8.80833 14 9.04583 13.9042 9.2375 13.7125C9.42917 13.5208 9.525 13.2833 9.525 13C9.525 12.7167 9.42917 12.4792 9.2375 12.2875C9.04583 12.0958 8.80833 12 8.525 12H5C4.71667 12 4.47917 12.0958 4.2875 12.2875C4.09583 12.4792 4 12.7167 4 13C4 13.2833 4.09583 13.5208 4.2875 13.7125C4.47917 13.9042 4.71667 14 5 14ZM5 6H13C13.2833 6 13.5208 5.90417 13.7125 5.7125C13.9042 5.52083 14 5.28333 14 5C14 4.71667 13.9042 4.47917 13.7125 4.2875C13.5208 4.09583 13.2833 4 13 4H5C4.71667 4 4.47917 4.09583 4.2875 4.2875C4.09583 4.47917 4 4.71667 4 5C4 5.28333 4.09583 5.52083 4.2875 5.7125C4.47917 5.90417 4.71667 6 5 6ZM2 18C1.45 18 0.979167 17.8042 0.5875 17.4125C0.195833 17.0208 0 16.55 0 16V2C0 1.45 0.195833 0.979167 0.5875 0.5875C0.979167 0.195833 1.45 0 2 0H16C16.55 0 17.0208 0.195833 17.4125 0.5875C17.8042 0.979167 18 1.45 18 2V6.45C18 6.73333 17.9042 6.97083 17.7125 7.1625C17.5208 7.35417 17.2833 7.45 17 7.45C16.7167 7.45 16.4792 7.35417 16.2875 7.1625C16.0958 6.97083 16 6.73333 16 6.45V2H2V16H6C6.28333 16 6.52083 16.0958 6.7125 16.2875C6.90417 16.4792 7 16.7167 7 17C7 17.2833 6.90417 17.5208 6.7125 17.7125C6.52083 17.9042 6.28333 18 6 18H2ZM14 13C13.3 13 12.7083 12.7583 12.225 12.275C11.7417 11.7917 11.5 11.2 11.5 10.5C11.5 9.8 11.7417 9.20833 12.225 8.725C12.7083 8.24167 13.3 8 14 8C14.7 8 15.2917 8.24167 15.775 8.725C16.2583 9.20833 16.5 9.8 16.5 10.5C16.5 11.2 16.2583 11.7917 15.775 12.275C15.2917 12.7583 14.7 13 14 13ZM14 14C14.65 14 15.2958 14.0625 15.9375 14.1875C16.5792 14.3125 17.2 14.5 17.8 14.75C18.1833 14.9 18.4792 15.1458 18.6875 15.4875C18.8958 15.8292 19 16.2 19 16.6V17C19 17.2833 18.9042 17.5208 18.7125 17.7125C18.5208 17.9042 18.2833 18 18 18H10C9.71667 18 9.47917 17.9042 9.2875 17.7125C9.09583 17.5208 9 17.2833 9 17V16.6C9 16.2 9.10417 15.8292 9.3125 15.4875C9.52083 15.1458 9.81667 14.9 10.2 14.75C10.8 14.5 11.4208 14.3125 12.0625 14.1875C12.7042 14.0625 13.35 14 14 14Z" fill="currentColor"/>
</svg>
