<svg width="20" height="15" viewBox="0 0 20 15" fill="none" xmlns="http://www.w3.org/2000/svg">
    <path d="M3.1 11.838L6.65 8.288C6.85 8.088 7.08333 7.99217 7.35 8.0005C7.61667 8.00883 7.85 8.113 8.05 8.313C8.23333 8.513 8.325 8.74633 8.325 9.013C8.325 9.27967 8.23333 9.513 8.05 9.713L3.825 13.963C3.625 14.163 3.39167 14.263 3.125 14.263C2.85833 14.263 2.625 14.163 2.425 13.963L0.275 11.813C0.0916667 11.6297 0 11.3963 0 11.113C0 10.8297 0.0916667 10.5963 0.275 10.413C0.458333 10.2297 0.691667 10.138 0.975 10.138C1.25833 10.138 1.49167 10.2297 1.675 10.413L3.1 11.838ZM3.1 3.838L6.65 0.288C6.85 0.088 7.08333 -0.00783333 7.35 0.0005C7.61667 0.00883333 7.85 0.113 8.05 0.313C8.23333 0.513 8.325 0.746333 8.325 1.013C8.325 1.27967 8.23333 1.513 8.05 1.713L3.825 5.963C3.625 6.163 3.39167 6.263 3.125 6.263C2.85833 6.263 2.625 6.163 2.425 5.963L0.275 3.813C0.0916667 3.62967 0 3.39633 0 3.113C0 2.82967 0.0916667 2.59633 0.275 2.413C0.458333 2.22967 0.691667 2.138 0.975 2.138C1.25833 2.138 1.49167 2.22967 1.675 2.413L3.1 3.838ZM11.575 12.663C11.2917 12.663 11.0542 12.5672 10.8625 12.3755C10.6708 12.1838 10.575 11.9463 10.575 11.663C10.575 11.3797 10.6708 11.1422 10.8625 10.9505C11.0542 10.7588 11.2917 10.663 11.575 10.663H18.575C18.8583 10.663 19.0958 10.7588 19.2875 10.9505C19.4792 11.1422 19.575 11.3797 19.575 11.663C19.575 11.9463 19.4792 12.1838 19.2875 12.3755C19.0958 12.5672 18.8583 12.663 18.575 12.663H11.575ZM11.575 4.663C11.2917 4.663 11.0542 4.56717 10.8625 4.3755C10.6708 4.18383 10.575 3.94633 10.575 3.663C10.575 3.37967 10.6708 3.14217 10.8625 2.9505C11.0542 2.75883 11.2917 2.663 11.575 2.663H18.575C18.8583 2.663 19.0958 2.75883 19.2875 2.9505C19.4792 3.14217 19.575 3.37967 19.575 3.663C19.575 3.94633 19.4792 4.18383 19.2875 4.3755C19.0958 4.56717 18.8583 4.663 18.575 4.663H11.575Z" fill="currentColor"/>
</svg>
