<svg width="22" height="22" viewBox="0 0 22 22" fill="none" xmlns="http://www.w3.org/2000/svg">
    <path d="M2 22C1.45 22 0.979167 21.8042 0.5875 21.4125C0.195833 21.0208 0 20.55 0 20V18C0 17.7167 0.0958333 17.4792 0.2875 17.2875C0.479167 17.0958 0.716667 17 1 17C1.28333 17 1.52083 17.0958 1.7125 17.2875C1.90417 17.4792 2 17.7167 2 18V20H4C4.28333 20 4.52083 20.0958 4.7125 20.2875C4.90417 20.4792 5 20.7167 5 21C5 21.2833 4.90417 21.5208 4.7125 21.7125C4.52083 21.9042 4.28333 22 4 22H2ZM20 22H18C17.7167 22 17.4792 21.9042 17.2875 21.7125C17.0958 21.5208 17 21.2833 17 21C17 20.7167 17.0958 20.4792 17.2875 20.2875C17.4792 20.0958 17.7167 20 18 20H20V18C20 17.7167 20.0958 17.4792 20.2875 17.2875C20.4792 17.0958 20.7167 17 21 17C21.2833 17 21.5208 17.0958 21.7125 17.2875C21.9042 17.4792 22 17.7167 22 18V20C22 20.55 21.8042 21.0208 21.4125 21.4125C21.0208 21.8042 20.55 22 20 22ZM11 17.5C9.23333 17.5 7.6 17.0333 6.1 16.1C4.6 15.1667 3.425 13.8917 2.575 12.275C2.475 12.075 2.4 11.8708 2.35 11.6625C2.3 11.4542 2.275 11.2417 2.275 11.025C2.275 10.7917 2.3 10.5667 2.35 10.35C2.4 10.1333 2.475 9.925 2.575 9.725C3.425 8.10833 4.6 6.83333 6.1 5.9C7.6 4.96667 9.23333 4.5 11 4.5C12.7667 4.5 14.4 4.96667 15.9 5.9C17.4 6.83333 18.575 8.10833 19.425 9.725C19.525 9.925 19.6 10.1292 19.65 10.3375C19.7 10.5458 19.725 10.7667 19.725 11C19.725 11.2333 19.7 11.4542 19.65 11.6625C19.6 11.8708 19.525 12.075 19.425 12.275C18.575 13.8917 17.4 15.1667 15.9 16.1C14.4 17.0333 12.7667 17.5 11 17.5ZM11 15.5C12.4667 15.5 13.8083 15.1 15.025 14.3C16.2417 13.5 17.175 12.4 17.825 11C17.175 9.6 16.2417 8.5 15.025 7.7C13.8083 6.9 12.4667 6.5 11 6.5C9.53333 6.5 8.19167 6.9 6.975 7.7C5.75833 8.5 4.825 9.6 4.175 11C4.825 12.4 5.75833 13.5 6.975 14.3C8.19167 15.1 9.53333 15.5 11 15.5ZM11 14.5C11.9667 14.5 12.7917 14.1583 13.475 13.475C14.1583 12.7917 14.5 11.9667 14.5 11C14.5 10.0333 14.1583 9.20833 13.475 8.525C12.7917 7.84167 11.9667 7.5 11 7.5C10.0333 7.5 9.20833 7.84167 8.525 8.525C7.84167 9.20833 7.5 10.0333 7.5 11C7.5 11.9667 7.84167 12.7917 8.525 13.475C9.20833 14.1583 10.0333 14.5 11 14.5ZM11 12.5C10.5833 12.5 10.2292 12.3542 9.9375 12.0625C9.64583 11.7708 9.5 11.4167 9.5 11C9.5 10.5833 9.64583 10.2292 9.9375 9.9375C10.2292 9.64583 10.5833 9.5 11 9.5C11.4167 9.5 11.7708 9.64583 12.0625 9.9375C12.3542 10.2292 12.5 10.5833 12.5 11C12.5 11.4167 12.3542 11.7708 12.0625 12.0625C11.7708 12.3542 11.4167 12.5 11 12.5ZM22 2V4C22 4.28333 21.9042 4.52083 21.7125 4.7125C21.5208 4.90417 21.2833 5 21 5C20.7167 5 20.4792 4.90417 20.2875 4.7125C20.0958 4.52083 20 4.28333 20 4V2H18C17.7167 2 17.4792 1.90417 17.2875 1.7125C17.0958 1.52083 17 1.28333 17 1C17 0.716667 17.0958 0.479167 17.2875 0.2875C17.4792 0.0958333 17.7167 0 18 0H20C20.55 0 21.0208 0.195833 21.4125 0.5875C21.8042 0.979167 22 1.45 22 2ZM2 0H4C4.28333 0 4.52083 0.0958333 4.7125 0.2875C4.90417 0.479167 5 0.716667 5 1C5 1.28333 4.90417 1.52083 4.7125 1.7125C4.52083 1.90417 4.28333 2 4 2H2V4C2 4.28333 1.90417 4.52083 1.7125 4.7125C1.52083 4.90417 1.28333 5 1 5C0.716667 5 0.479167 4.90417 0.2875 4.7125C0.0958333 4.52083 0 4.28333 0 4V2C0 1.45 0.195833 0.979167 0.5875 0.5875C0.979167 0.195833 1.45 0 2 0Z" fill="currentColor"/>
</svg>
