<svg width="17" height="20" viewBox="0 0 17 20" fill="none" xmlns="http://www.w3.org/2000/svg">
    <path d="M1.038 5.325L0.288 4.6C0.088 4.41667 -0.00783333 4.1875 0.0005 3.9125C0.00883333 3.6375 0.104667 3.4 0.288 3.2C0.488 3 0.7255 2.89583 1.0005 2.8875C1.2755 2.87917 1.513 2.975 1.713 3.175L2.438 3.9C2.62133 4.08333 2.71717 4.3125 2.7255 4.5875C2.73383 4.8625 2.638 5.1 2.438 5.3C2.25467 5.48333 2.0255 5.57917 1.7505 5.5875C1.4755 5.59583 1.238 5.50833 1.038 5.325ZM7.088 2V1C7.088 0.716667 7.18383 0.479167 7.3755 0.2875C7.56717 0.0958333 7.80467 0 8.088 0C8.37133 0 8.60883 0.0958333 8.8005 0.2875C8.99217 0.479167 9.088 0.716667 9.088 1V2C9.088 2.28333 8.99217 2.52083 8.8005 2.7125C8.60883 2.90417 8.37133 3 8.088 3C7.80467 3 7.56717 2.90417 7.3755 2.7125C7.18383 2.52083 7.088 2.28333 7.088 2ZM13.788 3.875L14.488 3.175C14.6713 2.99167 14.9005 2.9 15.1755 2.9C15.4505 2.9 15.688 3 15.888 3.2C16.0713 3.38333 16.163 3.61667 16.163 3.9C16.163 4.18333 16.0713 4.41667 15.888 4.6L15.188 5.3C15.0047 5.48333 14.7755 5.57917 14.5005 5.5875C14.2255 5.59583 13.988 5.50833 13.788 5.325C13.588 5.125 13.488 4.88333 13.488 4.6C13.488 4.31667 13.588 4.075 13.788 3.875ZM5.088 18V15L2.663 12.575C2.47967 12.3917 2.338 12.1792 2.238 11.9375C2.138 11.6958 2.088 11.4417 2.088 11.175V9C2.088 8.45 2.28383 7.97917 2.6755 7.5875C3.06717 7.19583 3.538 7 4.088 7H12.088C12.638 7 13.1088 7.19583 13.5005 7.5875C13.8922 7.97917 14.088 8.45 14.088 9V11.175C14.088 11.4417 14.038 11.6958 13.938 11.9375C13.838 12.1792 13.6963 12.3917 13.513 12.575L11.088 15V18C11.088 18.55 10.8922 19.0208 10.5005 19.4125C10.1088 19.8042 9.638 20 9.088 20H7.088C6.538 20 6.06717 19.8042 5.6755 19.4125C5.28383 19.0208 5.088 18.55 5.088 18ZM7.088 18H9.088V14.175L12.088 11.175V9H4.088V11.175L7.088 14.175V18Z" fill="currentColor"/>
</svg>
